<svg id="Layer_1" data-name="Layer 1" xmlns="http://www.w3.org/2000/svg" viewBox="0 0 477.68 157.62"><defs><style>.cls-1{fill:#00a1cd;}.cls-2{fill:#271d6c;}</style></defs><path class="cls-1" d="M42,33.85v7.87H19V60.59H42v7.89H11.15V33.85H42m5.5-5.5H10.65a5,5,0,0,0-5,5V74H47.51V55.09h-23V47.22h23V28.35Z"/><path class="cls-1" d="M68,11.17V33.85H94.81V68.47H60.14V11.17H68m0,49.39h18.9V41.69H68V60.56M68.5,5.67H54.64V74h45.67V33.35a5,5,0,0,0-5-5H73.49V10.93a5.22,5.22,0,0,0-5-5.26Zm5,49.39V47.19h7.91v7.87Z"/><path class="cls-1" d="M94.74,86.59v8H19.07v18H94.78v33.89H11.17v-7.89H86.93V120.46H11.17V86.59H94.74m5.5-5.5H5.66V126H81.44v7.11H5.67V147a5,5,0,0,0,5,5H95.28a5,5,0,0,0,5-5V107.07H24.57v-7h75.67v-19Z"/><path class="cls-2" d="M139.48,100.4c-8.35,0-11.09-5.52-11.09-15.48,0-9.79,2.74-15.94,11.09-15.94a18,18,0,0,1,5.69.76c.18.09.23.14.23.41l-.18,3a.25.25,0,0,1-.36.22,15.87,15.87,0,0,0-4.89-.76c-6,0-7.09,3.55-7.09,12.39,0,8.3,1.12,11.85,7.09,11.85a20.39,20.39,0,0,0,4.67-.58c.22,0,.53-.09.58.18l.27,2.73c0,.27-.05.45-.18.5A21.15,21.15,0,0,1,139.48,100.4Z"/><path class="cls-2" d="M161.32,100.4c-8.93,0-11-5.61-11-12.48,0-7.09,2.61-12.43,10.1-12.43s9.11,4.44,9.11,10.41v1.26c0,1.8-.41,2.2-1.17,2.2H155c-.23,0-.27.09-.27.31,0,6,2.73,7.41,7.49,7.41A16.18,16.18,0,0,0,168,95.91a1.81,1.81,0,0,0,.22,0,.45.45,0,0,1,.45.27l.18,2.38v.13a.47.47,0,0,1-.31.45A18,18,0,0,1,161.32,100.4ZM155,86.22h10c.4,0,.53-.09.53-1.57,0-4-1.21-5.93-5.11-5.93-4.58,0-5.65,3-5.65,7.18C154.73,86.08,154.77,86.22,155,86.22Z"/><path class="cls-2" d="M191,100a.43.43,0,0,1-.45-.45V84.06c0-4.22-.85-5.25-5.38-5.25a18.51,18.51,0,0,0-3.95.36c-.31.09-.45.18-.45.49V99.5a.43.43,0,0,1-.45.45h-3.41a.43.43,0,0,1-.45-.45V76.88c0-.27.18-.4.45-.45a54,54,0,0,1,8.26-.94c7.89,0,9.69,1.71,9.69,8.26V99.5a.43.43,0,0,1-.45.45Z"/><path class="cls-2" d="M208.74,100.4c-3.37,0-4.94-1.75-4.94-4.62V79.53a.24.24,0,0,0-.27-.27h-3.59a.42.42,0,0,1-.44-.45V76.39a.42.42,0,0,1,.44-.45h3.59a.24.24,0,0,0,.27-.27V70.06a.43.43,0,0,1,.45-.45h3.41a.43.43,0,0,1,.45.45v5.61a.24.24,0,0,0,.27.27h4.22a.43.43,0,0,1,.45.45v2.42a.43.43,0,0,1-.45.45h-4.22a.24.24,0,0,0-.27.27V95.24c0,1.35.54,1.88,2,1.88h1.84a.4.4,0,0,1,.45.45l-.09,1.89a.59.59,0,0,1-.4.58A17.12,17.12,0,0,1,208.74,100.4Z"/><path class="cls-2" d="M218.38,76.43a32.7,32.7,0,0,1,7.14-.94,28,28,0,0,1,4.12.22c.23.05.27.14.27.36L229.69,79c0,.13-.09.22-.32.18a23.65,23.65,0,0,0-3.81-.27,8.42,8.42,0,0,0-3,.44.53.53,0,0,0-.32.54V99.5a.43.43,0,0,1-.54.45h-3.32a.43.43,0,0,1-.45-.45V76.88C217.93,76.61,218.11,76.48,218.38,76.43Z"/><path class="cls-2" d="M235.25,79.35c-.27,0-.63,0-.67-.22l-.32-2.2c0-.27,0-.54.27-.63a25,25,0,0,1,7-.81c5.56,0,8.43,2.06,8.43,7.32V99c0,.26-.09.49-.58.67a27.8,27.8,0,0,1-7,.76c-7.81,0-10.06-1.57-10.06-6.46,0-4.31,1-6.65,7.63-7.45l5.61-.68c.18,0,.27-.09.27-.27V83.25c0-3.45-1.44-4.3-5.29-4.3A39.06,39.06,0,0,0,235.25,79.35Zm10.5,9.92a.24.24,0,0,0-.27-.27H241.4c-3.77,0-4.76.81-4.76,4.4s.76,4,5.25,4a17.65,17.65,0,0,0,3.46-.27c.35-.09.4-.17.4-.31Z"/><path class="cls-2" d="M259.52,79.35c-.27,0-.63,0-.67-.22l-.32-2.2c0-.27,0-.54.27-.63a25,25,0,0,1,7-.81c5.56,0,8.43,2.06,8.43,7.32V99c0,.26-.09.49-.58.67a27.83,27.83,0,0,1-7.05.76c-7.8,0-10.05-1.57-10.05-6.46,0-4.31,1-6.65,7.63-7.45l5.61-.68c.18,0,.27-.09.27-.27V83.25c0-3.45-1.44-4.3-5.3-4.3A39,39,0,0,0,259.52,79.35ZM270,89.27a.24.24,0,0,0-.27-.27h-4.08c-3.77,0-4.76.81-4.76,4.4s.76,4,5.25,4a17.65,17.65,0,0,0,3.46-.27c.35-.09.4-.17.4-.31Z"/><path class="cls-2" d="M286.84,100.4c-3.37,0-4.94-1.12-4.94-5.3V67.41a.43.43,0,0,1,.45-.45h3.41a.43.43,0,0,1,.45.45V95.24c0,1.35.59,1.88,1.84,1.88H290a.4.4,0,0,1,.45.45l-.09,1.89a.59.59,0,0,1-.4.58A12.57,12.57,0,0,1,286.84,100.4Z"/><path class="cls-2" d="M314.25,69.43c6.24,0,9.29,1.93,9.29,7.54,0,4.18-1.8,5.25-3.73,6.46-.45.27-.54.36-.54.59s.14.31.41.4c2.51,1,4.48,2.74,4.48,7.5,0,5.92-4,8-8.34,8H305.54a.42.42,0,0,1-.44-.45V69.88a.42.42,0,0,1,.44-.45Zm-2.42,13.51c4.39,0,7.18-.45,7.18-5.57,0-3.45-1.17-4.66-5.84-4.66h-3.41c-.22,0-.27.09-.27.27v9.6c0,.32.09.36.36.36ZM313,96.63c5.07,0,6.68-.81,6.68-5.3s-2.78-5.43-6.46-5.43h-3.32c-.27,0-.36.09-.36.41v10c0,.23.05.27.23.27Z"/><path class="cls-2" d="M334.62,75.94a.42.42,0,0,1,.44.45V91.51c0,4.22,1.08,5.44,5.61,5.44a18.42,18.42,0,0,0,3.73-.36c.31-.09.44-.18.44-.5V76.39a.43.43,0,0,1,.45-.45h3.41a.43.43,0,0,1,.45.45V99c0,.27-.18.4-.45.45a46.75,46.75,0,0,1-8,.94c-7.9,0-10-1.88-10-8.44V76.39a.43.43,0,0,1,.45-.45Z"/><path class="cls-2" d="M357.49,76.43a32.7,32.7,0,0,1,7.14-.94,28,28,0,0,1,4.12.22c.23.05.27.14.27.36L368.8,79c0,.13-.09.22-.31.18a23.87,23.87,0,0,0-3.82-.27,8.42,8.42,0,0,0-3,.44.53.53,0,0,0-.32.54V99.5a.43.43,0,0,1-.54.45h-3.32a.43.43,0,0,1-.45-.45V76.88C357,76.61,357.22,76.48,357.49,76.43Z"/><path class="cls-2" d="M383,100.4c-8.93,0-11-5.61-11-12.48,0-7.09,2.61-12.43,10.1-12.43s9.11,4.44,9.11,10.41v1.26c0,1.8-.41,2.2-1.17,2.2H376.69c-.22,0-.26.09-.26.31,0,6,2.73,7.41,7.49,7.41a16.18,16.18,0,0,0,5.79-1.17,1.81,1.81,0,0,0,.22,0,.46.46,0,0,1,.45.27l.18,2.38v.13a.47.47,0,0,1-.32.45A17.93,17.93,0,0,1,383,100.4Zm-6.33-14.18h10c.41,0,.54-.09.54-1.57,0-4-1.21-5.93-5.11-5.93-4.58,0-5.65,3-5.65,7.18C376.43,86.08,376.47,86.22,376.69,86.22Z"/><path class="cls-2" d="M399.66,79.35c-.27,0-.62,0-.67-.22l-.31-2.2c-.05-.27,0-.54.27-.63a24.85,24.85,0,0,1,6.95-.81c5.56,0,8.43,2.06,8.43,7.32V99c0,.26-.09.49-.58.67a27.8,27.8,0,0,1-7,.76c-7.81,0-10-1.57-10-6.46,0-4.31,1-6.65,7.62-7.45l5.61-.68c.18,0,.27-.09.27-.27V83.25c0-3.45-1.43-4.3-5.29-4.3A39.06,39.06,0,0,0,399.66,79.35Zm10.5,9.92a.24.24,0,0,0-.27-.27h-4.08c-3.77,0-4.76.81-4.76,4.4s.77,4,5.25,4a17.58,17.58,0,0,0,3.46-.27c.36-.09.4-.17.4-.31Z"/><path class="cls-2" d="M425.73,75.94a.43.43,0,0,1,.45.45V91.51c0,4.22,1.07,5.44,5.6,5.44a18.42,18.42,0,0,0,3.73-.36c.31-.09.45-.18.45-.5V76.39a.42.42,0,0,1,.44-.45h3.41a.43.43,0,0,1,.45.45V99c0,.27-.18.4-.45.45a46.75,46.75,0,0,1-8,.94c-7.9,0-10-1.88-10-8.44V76.39a.43.43,0,0,1,.45-.45Z"/><path class="cls-2" d="M139.39,151.69h-5.84a.57.57,0,0,1-.45-.36c-1.84-4.94-6.19-20.29-6.77-23.25,0-.27.09-.41.4-.41h3.68c.27,0,.36.18.41.41,1.34,5.7,3.76,15.39,5.2,19.84,0,.22.22.27.63.27s.58-.05.67-.27c1.44-4.45,3.77-14.14,5.07-19.84a.53.53,0,0,1,.59-.41h3.45c.27,0,.36.23.36.45-.54,2.92-5.12,18.54-6.87,23.21A.5.5,0,0,1,139.39,151.69Z"/><path class="cls-2" d="M168.14,149.71c-1.52,1.71-3.81,2.43-7.36,2.43s-5.69-.72-7.22-2.43c-1.62-1.88-2.83-5.74-2.83-10.23s1.17-8.08,2.83-9.92,3.81-2.34,7.31-2.34,5.75.63,7.27,2.34c1.62,1.88,2.74,5.38,2.74,9.92S169.76,147.83,168.14,149.71Zm-11.35-2c.72.76,1.66,1.08,4,1.08s3.37-.32,4-1.08c1.12-1.21,1.66-4.53,1.66-8.21s-.54-6.65-1.66-7.86c-.67-.76-1.57-1.07-3.95-1.07s-3.36.31-4.08,1.07c-1.12,1.21-1.66,4.13-1.66,7.86S155.67,146.48,156.79,147.69Z"/><path class="cls-2" d="M194.39,149.71c-1.53,1.71-3.82,2.43-7.36,2.43s-5.7-.72-7.23-2.43c-1.61-1.88-2.82-5.74-2.82-10.23s1.16-8.08,2.82-9.92,3.82-2.34,7.32-2.34,5.74.63,7.27,2.34c1.61,1.88,2.73,5.38,2.73,9.92S196,147.83,194.39,149.71Zm-11.36-2c.72.76,1.66,1.08,4,1.08s3.36-.32,4-1.08c1.12-1.21,1.66-4.53,1.66-8.21s-.54-6.65-1.66-7.86c-.68-.76-1.58-1.07-3.95-1.07s-3.37.31-4.09,1.07c-1.12,1.21-1.66,4.13-1.66,7.86S181.91,146.48,183,147.69Z"/><path class="cls-2" d="M204.57,128.17a32.57,32.57,0,0,1,7.13-.95,28.14,28.14,0,0,1,4.13.23c.22,0,.27.13.27.36l-.23,2.87c0,.13-.09.22-.31.18a23.65,23.65,0,0,0-3.81-.27,8.26,8.26,0,0,0-3,.45.52.52,0,0,0-.32.54v19.66a.43.43,0,0,1-.53.45h-3.32a.43.43,0,0,1-.45-.45V128.62C204.12,128.35,204.3,128.21,204.57,128.17Z"/><path class="cls-2" d="M229.19,139.39c0-8.53,3.28-12.17,10.91-12.17,1.52,0,3,.32,3.5.32.27,0,.31-.18.31-.41v-8a.43.43,0,0,1,.45-.45h3.41a.43.43,0,0,1,.45.45v31.51a.57.57,0,0,1-.45.54,29,29,0,0,1-7.45.95C231.44,152.14,229.19,148.59,229.19,139.39Zm14.72-7.9a.54.54,0,0,0-.31-.54,12.91,12.91,0,0,0-3.41-.4c-4.94,0-6.51,1.34-6.51,8.84s.76,9.47,6.64,9.47a11.82,11.82,0,0,0,3.19-.32c.36-.13.4-.31.4-.49Z"/><path class="cls-2" d="M266.25,152.14c-8.93,0-11-5.62-11-12.48,0-7.1,2.61-12.44,10.1-12.44s9.11,4.45,9.11,10.42v1.25c0,1.8-.41,2.2-1.17,2.2H259.92c-.22,0-.27.09-.27.32,0,6,2.74,7.4,7.5,7.4a16.46,16.46,0,0,0,5.79-1.16,1.49,1.49,0,0,0,.22-.05.46.46,0,0,1,.45.27l.18,2.38v.13a.47.47,0,0,1-.32.45A17.78,17.78,0,0,1,266.25,152.14ZM259.92,138h10c.41,0,.54-.09.54-1.57,0-4-1.21-5.93-5.11-5.93-4.58,0-5.66,3.06-5.66,7.19C259.65,137.82,259.7,138,259.92,138Z"/><path class="cls-2" d="M294.69,128.44a3.53,3.53,0,0,0,.63,2.28c.72,1,2.73,2.38,5.47,4.36a19.43,19.43,0,0,1,5.34,4.89,7.11,7.11,0,0,1,.85,3.91c0,5.65-2.73,8.12-8.34,8.12a40.18,40.18,0,0,1-8.48-.9c-.18,0-.23-.13-.23-.4l.18-2.92a.27.27,0,0,1,.36-.22,44.85,44.85,0,0,0,7.76.67c2.88,0,4.45-.81,4.45-3.95a4.73,4.73,0,0,0-.59-2.69c-.71-1-2.73-2.38-5.47-4.36-2.51-1.75-4.49-3.36-5.43-4.89a6.67,6.67,0,0,1-.85-3.77c0-5.66,2.91-7.54,9.37-7.54a25.71,25.71,0,0,1,6.82.9c.18.09.23.13.23.4l-.18,2.74a.25.25,0,0,1-.36.22,25.62,25.62,0,0,0-6.37-.72C296,124.57,294.69,125.47,294.69,128.44Z"/><path class="cls-2" d="M319.68,152.14c-3.37,0-4.94-1.76-4.94-4.63V131.26a.24.24,0,0,0-.27-.27h-3.59a.41.41,0,0,1-.44-.44v-2.43a.42.42,0,0,1,.44-.45h3.59a.24.24,0,0,0,.27-.27v-5.61a.43.43,0,0,1,.45-.45h3.41a.43.43,0,0,1,.45.45v5.61a.24.24,0,0,0,.27.27h4.22a.43.43,0,0,1,.45.45v2.43a.42.42,0,0,1-.45.44h-4.22a.24.24,0,0,0-.27.27V147c0,1.35.54,1.89,2,1.89h1.84a.4.4,0,0,1,.45.45l-.09,1.88a.61.61,0,0,1-.4.59A17.22,17.22,0,0,1,319.68,152.14Z"/><path class="cls-2" d="M330.62,131.08c-.27,0-.62,0-.67-.22l-.31-2.2c-.05-.27,0-.54.27-.63a25.23,25.23,0,0,1,6.95-.81c5.56,0,8.43,2.07,8.43,7.32V150.7c0,.27-.08.49-.58.67a27.24,27.24,0,0,1-7,.77c-7.81,0-10.05-1.58-10.05-6.47,0-4.31,1-6.64,7.62-7.45l5.61-.67c.18-.05.27-.09.27-.27V135c0-3.46-1.43-4.31-5.29-4.31A39.06,39.06,0,0,0,330.62,131.08Zm10.5,9.92a.24.24,0,0,0-.27-.27h-4.08c-3.77,0-4.76.81-4.76,4.4s.77,4,5.25,4a17.58,17.58,0,0,0,3.46-.27c.36-.09.4-.18.4-.32Z"/><path class="cls-2" d="M359.42,152.14c-3.36,0-4.93-1.76-4.93-4.63V131.26a.24.24,0,0,0-.27-.27h-3.59a.42.42,0,0,1-.45-.44v-2.43a.43.43,0,0,1,.45-.45h3.59a.24.24,0,0,0,.27-.27v-5.61a.43.43,0,0,1,.45-.45h3.41a.43.43,0,0,1,.45.45v5.61c0,.18.08.27.26.27h4.22a.43.43,0,0,1,.45.45v2.43a.42.42,0,0,1-.45.44h-4.22c-.18,0-.26.09-.26.27V147c0,1.35.53,1.89,2,1.89h1.84a.4.4,0,0,1,.45.45l-.09,1.88a.61.61,0,0,1-.41.59A17.12,17.12,0,0,1,359.42,152.14Z"/><path class="cls-2" d="M369.07,123a.43.43,0,0,1-.45-.45v-3.77a.43.43,0,0,1,.45-.45h3.81a.43.43,0,0,1,.45.45v3.77a.43.43,0,0,1-.45.45Zm.18,28.73a.43.43,0,0,1-.45-.45V128.12a.43.43,0,0,1,.45-.45h3.41a.42.42,0,0,1,.44.45v23.12a.42.42,0,0,1-.44.45Z"/><path class="cls-2" d="M379.79,151.69c-.14-.05-.27-.09-.27-.32l.18-2.87c0-.14.18-.23.36-.18a26.8,26.8,0,0,0,4.89.45c3.86,0,4.49-.41,4.49-3.23,0-1.66-.95-2.52-4.63-5.17s-5.07-3.77-5.07-6.68c0-4.63,2.07-6.47,7.95-6.47a30.57,30.57,0,0,1,5.11.36c.13,0,.27.09.27.32l-.18,2.87c0,.13-.18.22-.36.18a30.6,30.6,0,0,0-4.35-.4c-3.32,0-4.44.22-4.44,2.69,0,2,1,2.65,4.66,5.07,3.86,2.56,5.12,4.31,5.12,7,0,5.3-2.38,6.83-7.85,6.83A35.54,35.54,0,0,1,379.79,151.69Z"/><path class="cls-2" d="M406,152.14c-3.36,0-4.93-1.76-4.93-4.63V131.26a.24.24,0,0,0-.27-.27h-3.59a.42.42,0,0,1-.45-.44v-2.43a.43.43,0,0,1,.45-.45h3.59a.24.24,0,0,0,.27-.27v-5.61a.43.43,0,0,1,.45-.45H405a.42.42,0,0,1,.44.45v5.61a.24.24,0,0,0,.27.27h4.22a.43.43,0,0,1,.45.45v2.43a.42.42,0,0,1-.45.44h-4.22a.24.24,0,0,0-.27.27V147c0,1.35.54,1.89,2,1.89h1.84a.4.4,0,0,1,.45.45l-.09,1.88a.61.61,0,0,1-.41.59A17.12,17.12,0,0,1,406,152.14Z"/><path class="cls-2" d="M415.68,123a.43.43,0,0,1-.45-.45v-3.77a.43.43,0,0,1,.45-.45h3.81a.43.43,0,0,1,.45.45v3.77a.43.43,0,0,1-.45.45Zm.18,28.73a.43.43,0,0,1-.45-.45V128.12a.43.43,0,0,1,.45-.45h3.41a.42.42,0,0,1,.44.45v23.12a.42.42,0,0,1-.44.45Z"/><path class="cls-2" d="M438,152.14c-8.92,0-11-5.62-11-12.48,0-7.1,2.6-12.44,10.09-12.44s9.11,4.45,9.11,10.42v1.25c0,1.8-.4,2.2-1.17,2.2H431.65c-.23,0-.27.09-.27.32,0,6,2.74,7.4,7.49,7.4a16.41,16.41,0,0,0,5.79-1.16,1.49,1.49,0,0,0,.22-.05.45.45,0,0,1,.45.27l.18,2.38v.13a.47.47,0,0,1-.31.45A17.8,17.8,0,0,1,438,152.14ZM431.65,138h10c.4,0,.54-.09.54-1.57,0-4-1.22-5.93-5.12-5.93-4.57,0-5.65,3.06-5.65,7.19C431.38,137.82,431.42,138,431.65,138Z"/><path class="cls-2" d="M457.44,136.38c0,.27.18.4.81.4s.81,0,1-.18c2.19-2.42,5.6-6.46,7.22-8.52a.93.93,0,0,1,.85-.41h3.82c.49,0,.67.14.53.41-.8,1-5.92,6.64-8.92,9.83a.76.76,0,0,0-.32.54c0,.17.14.35.41.62,2.15,2.65,8.12,10.55,9.24,12.12.13.23.13.5-.59.5h-3.76a.74.74,0,0,1-.77-.36c-1.79-2.61-5.74-8.22-7.62-10.64a1.13,1.13,0,0,0-1-.45c-.76,0-.85.13-.85.4v10.6a.43.43,0,0,1-.45.45h-3.41a.43.43,0,0,1-.45-.45v-32.1a.43.43,0,0,1,.45-.45H457a.43.43,0,0,1,.45.45Z"/></svg>